<svg width="157" height="51" viewBox="0 0 157 51" fill="none" xmlns="http://www.w3.org/2000/svg">
<path d="M0.132812 8.09312L0.132812 3.11372C0.132812 2.18979 1.31518 1.80574 1.85811 2.55331L3.75228 5.1614C4.13169 5.68381 4.90968 5.68613 5.29219 5.16598L8.19465 1.21922C8.57506 0.70194 9.34761 0.700798 9.72954 1.21695L12.6606 5.17803C13.0426 5.69418 13.8151 5.69303 14.1955 5.17576L16.1491 2.51924C16.6948 1.77725 17.8711 2.1632 17.8711 3.08424V8.09312C17.8711 8.61981 17.4441 9.04679 16.9174 9.04679L15.319 9.04679L12.2363 9.04679L8.96056 9.04678L5.74234 9.04679L2.55856 9.04678L1.08648 9.04678C0.559783 9.04678 0.132812 8.61981 0.132812 8.09312Z" fill="#33E9A1"/>
<path d="M0.132812 8.37922L0.132812 2.23292C0.132812 1.58618 0.960468 1.31734 1.34052 1.84064L3.98232 5.47815C4.24791 5.84384 4.7925 5.84546 5.06026 5.48136L8.42442 0.906771C8.69071 0.544678 9.23149 0.543879 9.49885 0.905182L12.8913 5.48979C13.1587 5.85109 13.6995 5.85029 13.9657 5.4882L16.6657 1.81679C17.0477 1.29739 17.8711 1.56756 17.8711 2.21229V8.37922C17.8711 8.74791 17.5722 9.04679 17.2035 9.04679L15.319 9.04679L12.2363 9.04679L8.96056 9.04678L5.74234 9.04679L2.55856 9.04678L0.800379 9.04678C0.431692 9.04678 0.132812 8.7479 0.132812 8.37922Z" fill="#33E9A1"/>
<path d="M0.132812 13.1532C0.132812 12.3599 0.77594 11.7168 1.56928 11.7168H14.1857C19.1179 11.7168 23.1162 15.7151 23.1162 20.6473C23.1162 25.5795 19.1179 29.5778 14.1857 29.5778H1.56928C0.77594 29.5778 0.132812 28.9347 0.132812 28.1414V13.1532Z" fill="url(#paint0_linear_5140_7709)"/>
<path d="M0.132812 48.7469C0.132812 49.537 0.773268 50.1774 1.56331 50.1774H21.9412C22.5786 50.1774 23.1162 49.6892 23.1162 49.0517C23.1162 39.8091 13.4747 32.3164 1.58134 32.3164C1.55112 32.3164 1.52093 32.3165 1.49074 32.3166C0.72936 32.319 0.132812 32.9509 0.132812 33.7122V48.7469Z" fill="url(#paint1_linear_5140_7709)"/>
<path d="M35.8479 27.7168L32.6588 22.1765H30.4008V27.7168H26.8857V11.4219H33.4502C36.7092 11.4219 39.1535 13.6799 39.1535 16.8225C39.1535 18.9641 37.9895 20.6867 36.1738 21.5713L39.782 27.7168H35.8479ZM30.4008 14.6809V18.9175H33.2175C34.7073 18.9175 35.5686 18.033 35.5686 16.7992C35.5686 15.5887 34.7073 14.6809 33.2175 14.6809H30.4008ZM45.7909 24.4578H52.3089V27.7168H42.2759V11.4219H52.0528V14.6809H45.7909V17.9166H51.4476V21.1057H45.7909V24.4578ZM68.8504 11.4219L63.1006 21.1523V27.7168H59.4925V21.129L53.8125 11.4219H57.5604L61.3082 17.9631L65.0793 11.4219H68.8504ZM81.3908 11.4219H84.8593V27.7168H81.9029L74.5236 17.5441V27.7168H71.0784V11.4219H74.2443L81.3908 21.3618V11.4219ZM99.3839 27.7168L98.2433 24.644H91.7719L90.6545 27.7168H86.9067L93.3083 11.4219H96.6371L103.225 27.7168H99.3839ZM95.0076 15.7284L92.866 21.5713H97.1492L95.0076 15.7284Z" fill="white"/>
<path d="M32.0535 49.3833C28.5152 49.3833 26.1408 47.3814 26.1408 44.2388H27.7936C27.7936 46.427 29.5395 47.7771 32.0303 47.7771C34.2883 47.7771 35.9876 46.5434 35.9876 44.6578C35.9876 42.5162 33.9624 42.0739 31.7276 41.5618C29.2136 40.9798 26.4434 40.328 26.4434 37.1389C26.4434 34.392 28.585 32.6927 31.8906 32.6927C35.1728 32.6927 37.2214 34.5317 37.2214 37.4182H35.6151C35.6151 35.4395 34.0555 34.2523 31.8673 34.2523C29.6559 34.2523 28.0962 35.3464 28.0962 37.069C28.0962 39.0943 30.0981 39.5598 32.2863 40.0487C34.847 40.6539 37.6869 41.329 37.6869 44.6345C37.6869 47.6142 35.266 49.3833 32.0535 49.3833ZM48.4368 49.4532C43.5251 49.4532 39.9635 45.845 39.9635 41.0496C39.9635 36.231 43.5251 32.6228 48.4368 32.6228C53.3719 32.6228 56.9335 36.231 56.9335 41.0496C56.9335 45.845 53.3719 49.4532 48.4368 49.4532ZM48.4368 47.847C52.3942 47.847 55.2807 44.9371 55.2807 41.0496C55.2807 37.1389 52.3942 34.2291 48.4368 34.2291C44.5028 34.2291 41.6163 37.1621 41.6163 41.0496C41.6163 44.9139 44.5028 47.847 48.4368 47.847ZM62.0566 47.6607H69.4824V49.1738H60.4271V32.8789H62.0566V47.6607ZM77.6424 49.4299C74.011 49.4299 71.3339 46.8227 71.3339 43.1447V32.8789H72.9867V43.0283C72.9867 45.8683 74.9188 47.847 77.6424 47.847C80.366 47.847 82.2981 45.8683 82.2981 43.0283V32.8789H83.9509V43.1447C83.9509 46.8227 81.2739 49.4299 77.6424 49.4299ZM98.329 32.8789V34.4153H93.2543V49.1738H91.6248V34.4153H86.5501V32.8789H98.329ZM101.142 49.1738V32.8789H102.771V49.1738H101.142ZM114.726 49.4532C109.814 49.4532 106.253 45.845 106.253 41.0496C106.253 36.231 109.814 32.6228 114.726 32.6228C119.661 32.6228 123.223 36.231 123.223 41.0496C123.223 45.845 119.661 49.4532 114.726 49.4532ZM114.726 47.847C118.683 47.847 121.57 44.9371 121.57 41.0496C121.57 37.1389 118.683 34.2291 114.726 34.2291C110.792 34.2291 107.905 37.1621 107.905 41.0496C107.905 44.9139 110.792 47.847 114.726 47.847ZM137.89 32.8789H139.496V49.1738H138.123L128.322 35.7654V49.1738H126.716V32.8789H128.183L137.89 46.2175V32.8789ZM148.855 49.3833C145.317 49.3833 142.942 47.3814 142.942 44.2388H144.595C144.595 46.427 146.341 47.7771 148.832 47.7771C151.09 47.7771 152.789 46.5434 152.789 44.6578C152.789 42.5162 150.764 42.0739 148.529 41.5618C146.015 40.9798 143.245 40.328 143.245 37.1389C143.245 34.392 145.387 32.6927 148.692 32.6927C151.974 32.6927 154.023 34.5317 154.023 37.4182H152.417C152.417 35.4395 150.857 34.2523 148.669 34.2523C146.457 34.2523 144.898 35.3464 144.898 37.069C144.898 39.0943 146.9 39.5598 149.088 40.0487C151.648 40.6539 154.488 41.329 154.488 44.6345C154.488 47.6142 152.067 49.3833 148.855 49.3833Z" fill="white"/>
<defs>
<linearGradient id="paint0_linear_5140_7709" x1="11.6245" y1="11.7168" x2="11.6245" y2="29.5778" gradientUnits="userSpaceOnUse">
<stop offset="0.319852" stop-color="#19F39D"/>
<stop offset="1" stop-color="#59F5FF"/>
</linearGradient>
<linearGradient id="paint1_linear_5140_7709" x1="11.6245" y1="32.3164" x2="11.6245" y2="50.1774" gradientUnits="userSpaceOnUse">
<stop stop-color="#10F4FF"/>
<stop offset="1" stop-color="#0543E3"/>
</linearGradient>
</defs>
</svg>
