<svg width="157" height="50" viewBox="0 0 157 50" fill="none" xmlns="http://www.w3.org/2000/svg">
<path d="M0.132812 7.59312L0.132812 2.61372C0.132812 1.68979 1.31518 1.30574 1.85811 2.05331L3.75228 4.6614C4.13169 5.18381 4.90968 5.18613 5.29219 4.66598L8.19465 0.719215C8.57506 0.20194 9.34761 0.200798 9.72954 0.716945L12.6606 4.67803C13.0426 5.19418 13.8151 5.19303 14.1955 4.67576L16.1491 2.01924C16.6948 1.27725 17.8711 1.6632 17.8711 2.58424V7.59312C17.8711 8.11981 17.4441 8.54679 16.9174 8.54679L15.319 8.54679L12.2363 8.54679L8.96056 8.54678L5.74234 8.54679L2.55856 8.54678L1.08648 8.54678C0.559783 8.54678 0.132812 8.11981 0.132812 7.59312Z" fill="#33E9A1"/>
<path d="M0.132812 7.87922L0.132812 1.73292C0.132812 1.08618 0.960468 0.817338 1.34052 1.34064L3.98232 4.97815C4.24791 5.34384 4.7925 5.34546 5.06026 4.98136L8.42442 0.406771C8.69071 0.0446782 9.23149 0.0438785 9.49885 0.405182L12.8913 4.98979C13.1587 5.35109 13.6995 5.35029 13.9657 4.9882L16.6657 1.31679C17.0477 0.797392 17.8711 1.06756 17.8711 1.71229V7.87922C17.8711 8.24791 17.5722 8.54679 17.2035 8.54679L15.319 8.54679L12.2363 8.54679L8.96056 8.54678L5.74234 8.54679L2.55856 8.54678L0.800379 8.54678C0.431692 8.54678 0.132812 8.2479 0.132812 7.87922Z" fill="#33E9A1"/>
<path d="M0.132812 12.6532C0.132812 11.8599 0.77594 11.2168 1.56928 11.2168H14.1857C19.1179 11.2168 23.1162 15.2151 23.1162 20.1473C23.1162 25.0795 19.1179 29.0778 14.1857 29.0778H1.56928C0.77594 29.0778 0.132812 28.4347 0.132812 27.6414V12.6532Z" fill="url(#paint0_linear_4947_9465)"/>
<path d="M0.132812 48.2469C0.132812 49.037 0.773268 49.6774 1.56331 49.6774H21.9412C22.5786 49.6774 23.1162 49.1892 23.1162 48.5517C23.1162 39.3091 13.4747 31.8164 1.58134 31.8164C1.55112 31.8164 1.52093 31.8165 1.49074 31.8166C0.72936 31.819 0.132812 32.4509 0.132812 33.2122V48.2469Z" fill="url(#paint1_linear_4947_9465)"/>
<path d="M35.8479 27.2168L32.6588 21.6765H30.4008V27.2168H26.8857V10.9219H33.4502C36.7092 10.9219 39.1535 13.1799 39.1535 16.3225C39.1535 18.4641 37.9895 20.1867 36.1738 21.0713L39.782 27.2168H35.8479ZM30.4008 14.1809V18.4175H33.2175C34.7073 18.4175 35.5686 17.533 35.5686 16.2992C35.5686 15.0887 34.7073 14.1809 33.2175 14.1809H30.4008ZM45.7909 23.9578H52.3089V27.2168H42.2759V10.9219H52.0528V14.1809H45.7909V17.4166H51.4476V20.6057H45.7909V23.9578ZM68.8504 10.9219L63.1006 20.6523V27.2168H59.4925V20.629L53.8125 10.9219H57.5604L61.3082 17.4631L65.0793 10.9219H68.8504ZM81.3908 10.9219H84.8593V27.2168H81.9029L74.5236 17.0441V27.2168H71.0784V10.9219H74.2443L81.3908 20.8618V10.9219ZM99.3839 27.2168L98.2433 24.144H91.7719L90.6545 27.2168H86.9067L93.3083 10.9219H96.6371L103.225 27.2168H99.3839ZM95.0076 15.2284L92.866 21.0713H97.1492L95.0076 15.2284Z" fill="black"/>
<path d="M32.0535 48.8833C28.5152 48.8833 26.1408 46.8814 26.1408 43.7388H27.7936C27.7936 45.927 29.5395 47.2771 32.0303 47.2771C34.2883 47.2771 35.9876 46.0434 35.9876 44.1578C35.9876 42.0162 33.9624 41.5739 31.7276 41.0618C29.2136 40.4798 26.4434 39.828 26.4434 36.6389C26.4434 33.892 28.585 32.1927 31.8906 32.1927C35.1728 32.1927 37.2214 34.0317 37.2214 36.9182H35.6151C35.6151 34.9395 34.0555 33.7523 31.8673 33.7523C29.6559 33.7523 28.0962 34.8464 28.0962 36.569C28.0962 38.5943 30.0981 39.0598 32.2863 39.5487C34.847 40.1539 37.6869 40.829 37.6869 44.1345C37.6869 47.1142 35.266 48.8833 32.0535 48.8833ZM48.4368 48.9532C43.5251 48.9532 39.9635 45.345 39.9635 40.5496C39.9635 35.731 43.5251 32.1228 48.4368 32.1228C53.3719 32.1228 56.9335 35.731 56.9335 40.5496C56.9335 45.345 53.3719 48.9532 48.4368 48.9532ZM48.4368 47.347C52.3942 47.347 55.2807 44.4371 55.2807 40.5496C55.2807 36.6389 52.3942 33.7291 48.4368 33.7291C44.5028 33.7291 41.6163 36.6621 41.6163 40.5496C41.6163 44.4139 44.5028 47.347 48.4368 47.347ZM62.0566 47.1607H69.4824V48.6738H60.4271V32.3789H62.0566V47.1607ZM77.6424 48.9299C74.011 48.9299 71.3339 46.3227 71.3339 42.6447V32.3789H72.9867V42.5283C72.9867 45.3683 74.9188 47.347 77.6424 47.347C80.366 47.347 82.2981 45.3683 82.2981 42.5283V32.3789H83.9509V42.6447C83.9509 46.3227 81.2739 48.9299 77.6424 48.9299ZM98.329 32.3789V33.9153H93.2543V48.6738H91.6248V33.9153H86.5501V32.3789H98.329ZM101.142 48.6738V32.3789H102.771V48.6738H101.142ZM114.726 48.9532C109.814 48.9532 106.253 45.345 106.253 40.5496C106.253 35.731 109.814 32.1228 114.726 32.1228C119.661 32.1228 123.223 35.731 123.223 40.5496C123.223 45.345 119.661 48.9532 114.726 48.9532ZM114.726 47.347C118.683 47.347 121.57 44.4371 121.57 40.5496C121.57 36.6389 118.683 33.7291 114.726 33.7291C110.792 33.7291 107.905 36.6621 107.905 40.5496C107.905 44.4139 110.792 47.347 114.726 47.347ZM137.89 32.3789H139.496V48.6738H138.123L128.322 35.2654V48.6738H126.716V32.3789H128.183L137.89 45.7175V32.3789ZM148.855 48.8833C145.317 48.8833 142.942 46.8814 142.942 43.7388H144.595C144.595 45.927 146.341 47.2771 148.832 47.2771C151.09 47.2771 152.789 46.0434 152.789 44.1578C152.789 42.0162 150.764 41.5739 148.529 41.0618C146.015 40.4798 143.245 39.828 143.245 36.6389C143.245 33.892 145.387 32.1927 148.692 32.1927C151.974 32.1927 154.023 34.0317 154.023 36.9182H152.417C152.417 34.9395 150.857 33.7523 148.669 33.7523C146.457 33.7523 144.898 34.8464 144.898 36.569C144.898 38.5943 146.9 39.0598 149.088 39.5487C151.648 40.1539 154.488 40.829 154.488 44.1345C154.488 47.1142 152.067 48.8833 148.855 48.8833Z" fill="black"/>
<defs>
<linearGradient id="paint0_linear_4947_9465" x1="11.6245" y1="11.2168" x2="11.6245" y2="29.0778" gradientUnits="userSpaceOnUse">
<stop offset="0.319852" stop-color="#19F39D"/>
<stop offset="1" stop-color="#59F5FF"/>
</linearGradient>
<linearGradient id="paint1_linear_4947_9465" x1="11.6245" y1="31.8164" x2="11.6245" y2="49.6774" gradientUnits="userSpaceOnUse">
<stop stop-color="#10F4FF"/>
<stop offset="1" stop-color="#0543E3"/>
</linearGradient>
</defs>
</svg>
